<!DOCTYPE svg PUBLIC "-//W3C//DTD SVG 1.1//EN" "http://www.w3.org/Graphics/SVG/1.1/DTD/svg11.dtd">
<!-- Uploaded to: SVG Repo, www.svgrepo.com, Transformed by: SVG Repo Mixer Tools -->
<svg height="171px" width="171px" version="1.1" id="_x32_" xmlns="http://www.w3.org/2000/svg" xmlns:xlink="http://www.w3.org/1999/xlink" viewBox="0 0 512.00 512.00" xml:space="preserve" fill="#000000" stroke="#000000" stroke-width="0.00512" transform="matrix(1, 0, 0, 1, 0, 0)">
<g id="SVGRepo_bgCarrier" stroke-width="0"/>
<g id="SVGRepo_tracerCarrier" stroke-linecap="round" stroke-linejoin="round" stroke="#CCCCCC" stroke-width="1.024"/>
<g id="SVGRepo_iconCarrier"> <style type="text/css"> .st0{fill:#a0c3ca;} </style> <g> <path class="st0" d="M94.972,55.756H30.479C13.646,55.756,0,69.407,0,86.243v342.279c0,16.837,13.646,30.47,30.479,30.47h64.493 c16.833,0,30.479-13.634,30.479-30.47V86.243C125.452,69.407,111.805,55.756,94.972,55.756z M98.569,234.237H26.882v-17.922h71.687 V234.237z M98.569,180.471H26.882v-35.843h71.687V180.471z"/> <path class="st0" d="M238.346,55.756h-64.493c-16.833,0-30.479,13.651-30.479,30.487v342.279c0,16.837,13.646,30.47,30.479,30.47 h64.493c16.833,0,30.479-13.634,30.479-30.47V86.243C268.825,69.407,255.178,55.756,238.346,55.756z M241.942,234.237h-71.687 v-17.922h71.687V234.237z M241.942,180.471h-71.687v-35.843h71.687V180.471z"/> <path class="st0" d="M510.409,398.305L401.562,73.799c-5.352-15.961-22.63-24.554-38.587-19.208l-61.146,20.512 c-15.961,5.356-24.559,22.63-19.204,38.592L391.472,438.2c5.356,15.962,22.63,24.555,38.587,19.208l61.146-20.512 C507.166,431.541,515.763,414.267,510.409,398.305z M326.677,160.493l67.967-22.796l11.398,33.988l-67.968,22.796L326.677,160.493z M355.173,245.455l-5.701-16.994l67.968-22.796l5.696,16.994L355.173,245.455z"/> </g> </g>
</svg>